
<svg width="153px" height="44px" viewBox="0 0 153 44" version="1.1" xmlns="http://www.w3.org/2000/svg" xmlns:xlink="http://www.w3.org/1999/xlink">
    <defs>
        <polygon id="path-1" points="0.0768648649 0.353735849 29.9106486 0.353735849 29.9106486 43 0.0768648649 43 0.0768648649 0.353735849"></polygon>
        <polygon id="path-3" points="0 44 153 44 153 1 0 1"></polygon>
    </defs>
    <g id="The-Siren" stroke="none" stroke-width="1" fill="none" fill-rule="evenodd" opacity="0.5">
        <g id="Desktop-(1920x1080)" transform="translate(-880.000000, -8816.000000)">
            <g id="Footer" transform="translate(0.000000, 8504.000000)">
                <g id="Page-1" transform="translate(880.000000, 312.000000)">
                    <g id="Group-3" transform="translate(24.000000, 0.000000)">
                        <mask id="mask-2" fill="white">
                            <use xlink:href="#path-1"></use>
                        </mask>
                        <g id="Clip-2"></g>
                        <path d="M29.0933514,3.50831321 L25.1236216,11.3951623 C21.912,9.58348302 19.1098378,8.7072566 16.2484865,8.7072566 C13.5630811,8.7072566 12.3371351,9.46665283 12.3371351,11.0438604 C12.3371351,12.3289925 12.9784865,13.0892 15.4311892,14.6079925 L22.2614595,18.9891245 C27.6914595,22.4364264 29.9106486,25.8245019 29.9106486,30.8482 C29.9106486,38.6774453 24.539027,43.0001623 15.0809189,43.0001623 C9.76767568,43.0001623 4.572,41.5397849 0.0768648649,38.9111057 L4.16335135,30.7905962 C7.89956757,33.2432189 11.8117297,34.5875774 15.4311892,34.5875774 C18.7587568,34.5875774 20.6276757,33.3024453 20.6276757,31.2571057 C20.6276757,29.7383132 19.6344324,28.5708226 16.7155135,26.7591434 L10.4098378,22.7276906 C5.50524324,19.6316906 3.05416216,15.8931245 3.05416216,11.1615019 C3.05416216,4.4421434 7.95875676,0.353086792 16.1901081,0.353086792 C20.5101081,0.353086792 25.0060541,1.46297358 29.0933514,3.50831321" id="Fill-1" fill="#515151" mask="url(#mask-2)"></path>
                    </g>
                    <mask id="mask-4" fill="white">
                        <use xlink:href="#path-3"></use>
                    </mask>
                    <g id="Clip-5"></g>
                    <path d="M58.3680668,43 L67.6319332,43 L67.6319332,15.940244 L58.3680668,15.940244 L58.3680668,43 Z M58,11.8398373 L68,11.8398373 L68,2 L58,2 L58,11.8398373 Z" id="Fill-4" fill="#515151" mask="url(#mask-4)"></path>
                    <path d="M92,15.1184502 L92,23.8241335 C90.6172102,23.7065002 90.0752835,23.7065002 89.2945416,23.7065002 C84.7846093,23.7065002 82.0791509,25.8827168 82.0791509,31.9416501 L82.0791509,43 L73,43 L73,15.8242502 L81.5981805,15.8242502 C81.5981805,18.5886334 81.4169816,21.2353834 80.7556474,24.7652001 L80.9961325,24.8240168 C82.4398787,18.0004668 85.5060649,15 89.8347983,15 C90.7366177,15 91.397952,15.0596336 92,15.1184502" id="Fill-6" fill="#515151" mask="url(#mask-4)"></path>
                    <path d="M101.388269,26.6948184 L101.507222,26.8719878 C101.860801,26.4585926 102.924819,26.3396595 103.988017,26.3396595 L109.953737,26.3396595 C110.958689,26.3396595 111.844687,26.3995361 112.199086,26.8129313 L112.317219,26.6948184 C112.139199,23.3286005 110.131757,21.6159633 107.118543,21.6159633 C103.988017,21.6159633 101.802555,23.5049497 101.388269,26.6948184 M121,29.3523589 L121,31.714617 L104.814948,31.714617 C103.279218,31.714617 102.511353,31.6563808 101.625355,31.0059396 L101.507222,31.1839292 L101.743488,31.8335502 C102.511353,34.9635423 104.814948,36.6761794 108.53614,36.6761794 C111.666667,36.6761794 114.562568,35.4950503 116.451877,34.2548648 L119.406024,41.0463571 C116.097477,42.9960403 112.671618,44 108.595207,44 C99.1437403,44 93,38.565986 93,29.4122355 C93,20.434014 99.0264276,15 107.473763,15 C115.862032,15 121,20.1387318 121,29.3523589" id="Fill-7" fill="#515151" mask="url(#mask-4)"></path>
                    <path d="M153,26.0354907 L153,43 L144.157033,43 L144.157033,28.5006842 C144.157033,24.6259935 142.447709,22.7485661 139.56036,22.7485661 C136.199836,22.7485661 133.901091,24.7441989 133.901091,29.9093662 L133.901091,43 L125,43 L125,15.8804262 L133.783206,15.8804262 C133.783206,19.2260459 133.60638,20.3420677 133.252726,21.9847148 L133.487677,22.1029202 C135.139695,18.1108394 137.968102,15 143.450545,15 C149.521592,15 153,18.6977902 153,26.0354907" id="Fill-8" fill="#515151" mask="url(#mask-4)"></path>
                    <path d="M2.01380624,31 L2.01380624,33.4558101 C2.01380624,33.6666667 1.98603507,33.772095 1.94239467,33.8465642 L1.9709593,33.8766865 C2.04237086,33.8465642 2.19947632,33.8323397 2.39942871,33.8323397 L10,33.8323397 L10,36.1676603 L2.39942871,36.1676603 C2.19947632,36.1676603 2.04237086,36.1367012 1.9709593,36.1074155 L1.94239467,36.1367012 C1.98603507,36.2120071 2.01380624,36.3174354 2.01380624,36.528292 L2.01380624,39 L0,39 L0,31 L2.01380624,31 Z" id="Fill-9" fill="#515151" mask="url(#mask-4)"></path>
                    <path d="M2.97887215,27.7746989 C3.93040236,27.7746989 4.39179742,27.818894 4.9790275,27.9359289 L5.00699083,27.8770022 C4.01429237,27.4358705 3.32841386,26.7721267 3.32841386,25.4610078 C3.32841386,23.9428271 4.21003573,23 5.95852105,23 L10,23 L10,25.2105694 L6.54575113,25.2105694 C5.52431257,25.2105694 5.17477086,25.6517012 5.17477086,26.3743716 C5.17477086,27.1551502 5.65014758,27.7746989 6.88053441,27.7746989 L10,27.7746989 L10,30 L0,30 L0,27.7746989 L2.97887215,27.7746989 Z" id="Fill-10" fill="#515151" mask="url(#mask-4)"></path>
                    <path d="M6.82217195,19.9031162 L6.86572398,19.8727741 C6.76595023,19.7842081 6.73744344,19.5185098 6.73744344,19.2528116 L6.73744344,17.7619494 C6.73744344,17.5101921 6.75090498,17.2887769 6.85067873,17.2010309 L6.82217195,17.1706888 C6.00972851,17.2157919 5.59638009,17.7168463 5.59638009,18.470478 C5.59638009,19.2528116 6.05248869,19.7989691 6.82217195,19.9031162 M7.46436652,15 L8.03450226,15 L8.03450226,19.0461575 C8.03450226,19.4307638 8.02024887,19.6218369 7.86266968,19.8440722 L7.90622172,19.8727741 L8.06221719,19.8145501 C8.81843891,19.6218369 9.23178733,19.0461575 9.23178733,18.1153936 C9.23178733,17.33388 8.94751131,16.6097704 8.64739819,16.137418 L10.2873303,15.3993674 C10.7576923,16.2259841 11,17.0829428 11,18.1014527 C11,20.4640347 9.68789593,22 7.47782805,22 C5.31131222,22 4,20.4935567 4,18.3819119 C4,16.2850281 5.24004525,15 7.46436652,15" id="Fill-11" fill="#515151" mask="url(#mask-4)"></path>
                </g>
            </g>
        </g>
    </g>
</svg>