
<svg width="189px" height="53px" viewBox="0 0 189 53" version="1.1" xmlns="http://www.w3.org/2000/svg" xmlns:xlink="http://www.w3.org/1999/xlink">
    <g id="The-Siren" stroke="none" stroke-width="1" fill="none" fill-rule="evenodd">
        <g id="Desktop-(1920x1080)" transform="translate(-864.000000, -58.000000)">
            <rect fill="#FFFFFF" x="0" y="0" width="1920" height="9330"></rect>
            <g id="Header" transform="translate(40.000000, 30.000000)" fill="#404040">
                <g id="Logo" transform="translate(824.000000, 28.000000)">
                    <g>
                        <path d="M64.8818,3.8887 L59.9858,13.6097 C56.0248,11.3767 52.5688,10.2967 49.0398,10.2967 C45.7278,10.2967 44.2158,11.2327 44.2158,13.1767 C44.2158,14.7607 45.0068,15.6977 48.0318,17.5697 L56.4558,22.9697 C63.1528,27.2187 65.8898,31.3947 65.8898,37.5867 C65.8898,47.2367 59.2648,52.5647 47.5998,52.5647 C41.0468,52.5647 34.6388,50.7647 29.0948,47.5247 L34.1348,37.5157 C38.7428,40.5387 43.5678,42.1957 48.0318,42.1957 C52.1358,42.1957 54.4408,40.6117 54.4408,38.0907 C54.4408,36.2187 53.2158,34.7797 49.6158,32.5467 L41.8388,27.5777 C35.7898,23.7617 32.7668,19.1537 32.7668,13.3217 C32.7668,5.0397 38.8158,-0.0003 48.9678,-0.0003 C54.2958,-0.0003 59.8408,1.3677 64.8818,3.8887" id="Fill-1"></path>
                        <path d="M71.358,51.4845 L82.231,51.4845 L82.231,18.2175 L71.358,18.2175 L71.358,51.4845 Z M70.926,13.1765 L82.663,13.1765 L82.663,1.0795 L70.926,1.0795 L70.926,13.1765 Z" id="Fill-4"></path>
                        <path d="M112.3271,17.3536 L112.3271,28.0106 C110.6711,27.8666 110.0221,27.8666 109.0871,27.8666 C103.6861,27.8666 100.4461,30.5306 100.4461,37.9476 L100.4461,51.4846 L89.5731,51.4846 L89.5731,18.2176 L99.8701,18.2176 C99.8701,21.6016 99.6531,24.8416 98.8611,29.1626 L99.1491,29.2346 C100.8781,20.8816 104.5501,17.2086 109.7341,17.2086 C110.8141,17.2086 111.6061,17.2816 112.3271,17.3536" id="Fill-6"></path>
                        <path d="M124.7803,31.4668 L124.9253,31.6828 C125.3563,31.1788 126.6533,31.0338 127.9493,31.0338 L135.2213,31.0338 C136.4463,31.0338 137.5263,31.1068 137.9583,31.6108 L138.1023,31.4668 C137.8853,27.3628 135.4383,25.2748 131.7653,25.2748 C127.9493,25.2748 125.2853,27.5778 124.7803,31.4668 M148.6863,34.7068 L148.6863,37.5868 L128.9573,37.5868 C127.0853,37.5868 126.1493,37.5158 125.0693,36.7228 L124.9253,36.9398 L125.2133,37.7318 C126.1493,41.5478 128.9573,43.6358 133.4933,43.6358 C137.3093,43.6358 140.8393,42.1958 143.1423,40.6838 L146.7433,48.9638 C142.7103,51.3408 138.5343,52.5648 133.5653,52.5648 C122.0443,52.5648 114.5553,45.9398 114.5553,34.7798 C114.5553,23.8338 121.9013,17.2088 132.1983,17.2088 C142.4233,17.2088 148.6863,23.4738 148.6863,34.7068" id="Fill-7"></path>
                        <path d="M188.0703,30.6749 L188.0703,51.4849 L177.2683,51.4849 L177.2683,33.6989 C177.2683,28.9459 175.1803,26.6429 171.6533,26.6429 C167.5483,26.6429 164.7403,29.0909 164.7403,35.4269 L164.7403,51.4849 L153.8673,51.4849 L153.8673,18.2179 L164.5963,18.2179 C164.5963,22.3219 164.3803,23.6909 163.9483,25.7059 L164.2353,25.8509 C166.2533,20.9539 169.7083,17.1379 176.4053,17.1379 C183.8213,17.1379 188.0703,21.6739 188.0703,30.6749" id="Fill-8"></path>
                        <path d="M2.8086,37.334 L2.8086,40.269 C2.8086,40.521 2.7736,40.647 2.7186,40.736 L2.7546,40.772 C2.8446,40.736 3.0426,40.719 3.2946,40.719 L12.8736,40.719 L12.8736,43.51 L3.2946,43.51 C3.0426,43.51 2.8446,43.473 2.7546,43.438 L2.7186,43.473 C2.7736,43.563 2.8086,43.689 2.8086,43.941 L2.8086,46.895 L0.2706,46.895 L0.2706,37.334 L2.8086,37.334 Z" id="Fill-9"></path>
                        <path d="M3.835,33.5918 C5.06,33.5918 5.654,33.6458 6.41,33.7888 L6.446,33.7168 C5.168,33.1778 4.285,32.3668 4.285,30.7648 C4.285,28.9098 5.42,27.7578 7.671,27.7578 L12.874,27.7578 L12.874,30.4588 L8.427,30.4588 C7.112,30.4588 6.662,30.9978 6.662,31.8808 C6.662,32.8348 7.274,33.5918 8.858,33.5918 L12.874,33.5918 L12.874,36.3108 L0,36.3108 L0,33.5918 L3.835,33.5918 Z" id="Fill-10"></path>
                        <path d="M7.8682,23.9082 L7.9232,23.8712 C7.7972,23.7632 7.7612,23.4392 7.7612,23.1152 L7.7612,21.2972 C7.7612,20.9902 7.7782,20.7202 7.9042,20.6132 L7.8682,20.5762 C6.8422,20.6312 6.3202,21.2422 6.3202,22.1612 C6.3202,23.1152 6.8962,23.7812 7.8682,23.9082 M8.6792,17.9292 L9.3992,17.9292 L9.3992,22.8632 C9.3992,23.3322 9.3812,23.5652 9.1822,23.8362 L9.2372,23.8712 L9.4342,23.8002 C10.3892,23.5652 10.9112,22.8632 10.9112,21.7282 C10.9112,20.7752 10.5522,19.8922 10.1732,19.3162 L12.2442,18.4162 C12.8382,19.4242 13.1442,20.4692 13.1442,21.7112 C13.1442,24.5922 11.4872,26.4652 8.6962,26.4652 C5.9602,26.4652 4.3042,24.6282 4.3042,22.0532 C4.3042,19.4962 5.8702,17.9292 8.6792,17.9292" id="Fill-11"></path>
                    </g>
                </g>
            </g>
        </g>
    </g>
</svg>